<svg width="48" height="48" viewBox="0 0 48 48" fill="none" xmlns="http://www.w3.org/2000/svg">
<path d="M43.5 12C43.4994 10.878 43.1842 9.77853 42.5902 8.8266C41.9962 7.87467 41.1471 7.10839 40.1394 6.61478C39.1317 6.12118 38.0059 5.92003 36.8896 6.03418C35.7733 6.14834 34.7115 6.57321 33.8246 7.26056C32.9377 7.94791 32.2613 8.87019 31.8722 9.92266C31.4832 10.9751 31.397 12.1156 31.6236 13.2146C31.8501 14.3135 32.3803 15.3269 33.1539 16.1397C33.9275 16.9525 34.9136 17.532 36 17.8125V21C36 21.3979 35.842 21.7794 35.5607 22.0607C35.2794 22.342 34.8978 22.5 34.5 22.5H18C17.4889 22.4999 16.9815 22.5874 16.5 22.7588V17.8125C17.914 17.4474 19.1463 16.5792 19.9659 15.3705C20.7855 14.1618 21.1362 12.6958 20.9522 11.247C20.7682 9.79831 20.0621 8.46643 18.9663 7.50105C17.8706 6.53566 16.4604 6.00305 15 6.00305C13.5396 6.00305 12.1294 6.53566 11.0337 7.50105C9.93789 8.46643 9.23183 9.79831 9.04782 11.247C8.86381 12.6958 9.21448 14.1618 10.0341 15.3705C10.8537 16.5792 12.086 17.4474 13.5 17.8125V30.1875C12.086 30.5526 10.8537 31.4209 10.0341 32.6295C9.21448 33.8382 8.86381 35.3043 9.04782 36.753C9.23183 38.2018 9.93789 39.5336 11.0337 40.499C12.1294 41.4644 13.5396 41.997 15 41.997C16.4604 41.997 17.8706 41.4644 18.9663 40.499C20.0621 39.5336 20.7682 38.2018 20.9522 36.753C21.1362 35.3043 20.7855 33.8382 19.9659 32.6295C19.1463 31.4209 17.914 30.5526 16.5 30.1875V27C16.5 26.6022 16.658 26.2207 16.9393 25.9394C17.2206 25.6581 17.6022 25.5 18 25.5H34.5C35.6935 25.5 36.8381 25.0259 37.682 24.182C38.5259 23.3381 39 22.1935 39 21V17.8125C40.2875 17.4781 41.4277 16.7261 42.242 15.6743C43.0563 14.6224 43.4987 13.3302 43.5 12ZM12 12C12 11.4067 12.1759 10.8267 12.5056 10.3333C12.8352 9.83997 13.3038 9.45545 13.8519 9.22839C14.4001 9.00133 15.0033 8.94192 15.5853 9.05767C16.1672 9.17343 16.7018 9.45915 17.1213 9.87871C17.5409 10.2983 17.8266 10.8328 17.9424 11.4148C18.0581 11.9967 17.9987 12.5999 17.7716 13.1481C17.5446 13.6963 17.1601 14.1648 16.6667 14.4944C16.1734 14.8241 15.5933 15 15 15C14.2043 15 13.4413 14.684 12.8787 14.1213C12.3161 13.5587 12 12.7957 12 12ZM18 36C18 36.5934 17.8241 37.1734 17.4944 37.6667C17.1648 38.1601 16.6962 38.5446 16.148 38.7717C15.5999 38.9987 14.9967 39.0581 14.4147 38.9424C13.8328 38.8266 13.2982 38.5409 12.8787 38.1213C12.4591 37.7018 12.1734 37.1672 12.0576 36.5853C11.9419 36.0034 12.0013 35.4002 12.2284 34.852C12.4554 34.3038 12.8399 33.8353 13.3333 33.5056C13.8266 33.176 14.4067 33 15 33C15.7956 33 16.5587 33.3161 17.1213 33.8787C17.6839 34.4413 18 35.2044 18 36ZM37.5 15C36.9067 15 36.3266 14.8241 35.8333 14.4944C35.3399 14.1648 34.9554 13.6963 34.7284 13.1481C34.5013 12.5999 34.4419 11.9967 34.5576 11.4148C34.6734 10.8328 34.9591 10.2983 35.3787 9.87871C35.7982 9.45915 36.3328 9.17343 36.9147 9.05767C37.4967 8.94192 38.0999 9.00133 38.6481 9.22839C39.1962 9.45545 39.6648 9.83997 39.9944 10.3333C40.3241 10.8267 40.5 11.4067 40.5 12C40.5 12.7957 40.1839 13.5587 39.6213 14.1213C39.0587 14.684 38.2956 15 37.5 15Z" fill="#7C3AED"/>
</svg>
