<svg width="48" height="48" viewBox="0 0 48 48" fill="none" xmlns="http://www.w3.org/2000/svg">
<rect x="0.5" y="0.5" width="47" height="47" rx="23.5" fill="#4F46E5"/>
<rect x="0.5" y="0.5" width="47" height="47" rx="23.5" stroke="#E5E7EB"/>
<path d="M35.1456 17.7422C35.4173 16.8658 35.5044 15.9425 35.4015 15.0307C35.2986 14.1189 35.0079 13.2383 34.5478 12.4445C34.4697 12.3093 34.3575 12.1971 34.2223 12.1191C34.0872 12.041 33.9338 12 33.7778 12C32.7424 11.9978 31.7209 12.2379 30.7949 12.7009C29.8688 13.1639 29.0639 13.8371 28.4444 14.6667H25.7778C25.1583 13.8371 24.3534 13.1639 23.4273 12.7009C22.5013 12.2379 21.4798 11.9978 20.4444 12C20.2884 12 20.1351 12.041 19.9999 12.1191C19.8647 12.1971 19.7525 12.3093 19.6744 12.4445C19.2143 13.2383 18.9236 14.1189 18.8207 15.0307C18.7178 15.9425 18.805 16.8658 19.0767 17.7422C18.5275 18.7008 18.2333 19.7842 18.2222 20.8889V21.7778C18.2241 23.2818 18.7701 24.7343 19.7594 25.8672C20.7486 27 22.1144 27.7367 23.6044 27.9411C22.9962 28.7194 22.6661 29.6789 22.6667 30.6667V31.5556H20C19.2928 31.5556 18.6145 31.2746 18.1144 30.7745C17.6143 30.2744 17.3333 29.5961 17.3333 28.8889C17.3333 28.3052 17.2184 27.7273 16.995 27.1881C16.7717 26.6489 16.4443 26.1589 16.0316 25.7462C15.6189 25.3335 15.1289 25.0061 14.5897 24.7828C14.0505 24.5594 13.4725 24.4445 12.8889 24.4445C12.6531 24.4445 12.427 24.5381 12.2603 24.7048C12.0937 24.8715 12 25.0976 12 25.3333C12 25.5691 12.0937 25.7952 12.2603 25.9619C12.427 26.1286 12.6531 26.2222 12.8889 26.2222C13.5961 26.2222 14.2744 26.5032 14.7745 27.0033C15.2746 27.5034 15.5556 28.1817 15.5556 28.8889C15.5556 30.0676 16.0238 31.1981 16.8573 32.0316C17.6908 32.8651 18.8213 33.3333 20 33.3333H22.6667V35.1111C22.6667 35.3469 22.7603 35.573 22.927 35.7397C23.0937 35.9063 23.3198 36 23.5556 36C23.7913 36 24.0174 35.9063 24.1841 35.7397C24.3508 35.573 24.4444 35.3469 24.4444 35.1111V30.6667C24.4444 29.9594 24.7254 29.2811 25.2255 28.7811C25.7256 28.281 26.4039 28 27.1111 28C27.8184 28 28.4966 28.281 28.9967 28.7811C29.4968 29.2811 29.7778 29.9594 29.7778 30.6667V35.1111C29.7778 35.3469 29.8714 35.573 30.0381 35.7397C30.2048 35.9063 30.4309 36 30.6667 36C30.9024 36 31.1285 35.9063 31.2952 35.7397C31.4619 35.573 31.5556 35.3469 31.5556 35.1111V30.6667C31.5561 29.6789 31.226 28.7194 30.6178 27.9411C32.1078 27.7367 33.4736 27 34.4629 25.8672C35.4521 24.7343 35.9981 23.2818 36 21.7778V20.8889C35.9889 19.7842 35.6947 18.7008 35.1456 17.7422ZM34.2222 21.7778C34.2222 22.9565 33.754 24.087 32.9205 24.9205C32.087 25.754 30.9565 26.2222 29.7778 26.2222H24.4444C23.2657 26.2222 22.1352 25.754 21.3017 24.9205C20.4683 24.087 20 22.9565 20 21.7778V20.8889C20.0109 20 20.277 19.133 20.7667 18.3911C20.8579 18.2708 20.9171 18.1292 20.9384 17.9797C20.9598 17.8302 20.9428 17.6778 20.8889 17.5367C20.6574 16.9396 20.5459 16.3026 20.561 15.6624C20.5761 15.0221 20.7173 14.3911 20.9767 13.8056C21.7041 13.8838 22.4046 14.1248 23.0263 14.5106C23.648 14.8965 24.1748 15.4173 24.5678 16.0345C24.6479 16.1597 24.7581 16.2628 24.8883 16.3345C25.0186 16.4061 25.1647 16.4439 25.3133 16.4445H28.9078C29.057 16.4445 29.2038 16.4069 29.3347 16.3353C29.4655 16.2636 29.5763 16.1602 29.6567 16.0345C30.0496 15.4172 30.5764 14.8964 31.1981 14.5105C31.8197 14.1247 32.5203 13.8837 33.2478 13.8056C33.5068 14.3913 33.6477 15.0223 33.6623 15.6626C33.677 16.3029 33.5652 16.9397 33.3333 17.5367C33.2796 17.6764 33.2616 17.8273 33.281 17.9758C33.3004 18.1242 33.3566 18.2655 33.4444 18.3867C33.939 19.1286 34.209 19.9974 34.2222 20.8889V21.7778Z" fill="white"/>
</svg>
