<svg width="48" height="48" viewBox="0 0 48 48" fill="none" xmlns="http://www.w3.org/2000/svg">
<path d="M12.96 17.6532L5.34374 24L12.96 30.3469C13.1157 30.4716 13.245 30.626 13.3403 30.8012C13.4356 30.9765 13.495 31.1689 13.515 31.3674C13.535 31.5658 13.5153 31.7663 13.4569 31.957C13.3985 32.1477 13.3027 32.3249 13.175 32.4781C13.0473 32.6313 12.8904 32.7576 12.7133 32.8494C12.5362 32.9413 12.3427 32.9969 12.1439 33.013C11.9451 33.0291 11.745 33.0055 11.5555 32.9433C11.3659 32.8812 11.1907 32.782 11.04 32.6513L2.03999 25.1513C1.87112 25.0105 1.73525 24.8343 1.64201 24.6352C1.54877 24.4361 1.50044 24.219 1.50044 23.9991C1.50044 23.7793 1.54877 23.5621 1.64201 23.363C1.73525 23.1639 1.87112 22.9877 2.03999 22.8469L11.04 15.3469C11.3458 15.0923 11.7403 14.9696 12.1366 15.0058C12.5328 15.0421 12.8985 15.2342 13.1531 15.54C13.4077 15.8459 13.5304 16.2403 13.4942 16.6366C13.458 17.0329 13.2658 17.3986 12.96 17.6532ZM45.96 22.8469L36.96 15.3469C36.8086 15.2209 36.6338 15.1258 36.4456 15.0673C36.2575 15.0088 36.0597 14.9879 35.8634 15.0058C35.6672 15.0238 35.4764 15.0802 35.302 15.1718C35.1276 15.2635 34.9729 15.3886 34.8469 15.54C34.5923 15.8459 34.4696 16.2403 34.5058 16.6366C34.542 17.0329 34.7342 17.3986 35.04 17.6532L42.6562 24L35.04 30.3469C34.8843 30.4716 34.755 30.626 34.6597 30.8012C34.5644 30.9765 34.505 31.1689 34.485 31.3674C34.465 31.5658 34.4847 31.7663 34.5431 31.957C34.6015 32.1477 34.6973 32.3249 34.825 32.4781C34.9527 32.6313 35.1096 32.7576 35.2867 32.8494C35.4637 32.9413 35.6573 32.9969 35.8561 33.013C36.0549 33.0291 36.255 33.0055 36.4445 32.9433C36.634 32.8812 36.8093 32.782 36.96 32.6513L45.96 25.1513C46.1289 25.0105 46.2647 24.8343 46.358 24.6352C46.4512 24.4361 46.4995 24.219 46.4995 23.9991C46.4995 23.7793 46.4512 23.5621 46.358 23.363C46.2647 23.1639 46.1289 22.9877 45.96 22.8469ZM30.5119 6.09005C30.3267 6.02282 30.1301 5.99273 29.9333 6.00148C29.7365 6.01023 29.5434 6.05767 29.3649 6.14106C29.1864 6.22446 29.0262 6.3422 28.8932 6.48755C28.7602 6.63289 28.6572 6.80301 28.59 6.98817L16.59 39.9882C16.5225 40.1735 16.4922 40.3702 16.5008 40.5672C16.5094 40.7642 16.5567 40.9576 16.6402 41.1363C16.7236 41.315 16.8414 41.4754 16.9869 41.6085C17.1324 41.7416 17.3027 41.8447 17.4881 41.9119C17.6525 41.9703 17.8256 42.0001 18 42C18.308 42.0001 18.6086 41.9052 18.8609 41.7284C19.1131 41.5516 19.3049 41.3015 19.41 41.0119L31.41 8.01192C31.4772 7.82676 31.5073 7.63017 31.4986 7.43338C31.4898 7.23658 31.4424 7.04344 31.359 6.86497C31.2756 6.68651 31.1578 6.52622 31.0125 6.39326C30.8671 6.2603 30.697 6.15727 30.5119 6.09005Z" fill="#7C3AED"/>
</svg>
