<svg width="48" height="48" viewBox="0 0 48 48" fill="none" xmlns="http://www.w3.org/2000/svg">
<rect x="0.5" y="0.5" width="47" height="47" rx="23.5" fill="#4F46E5"/>
<rect x="0.5" y="0.5" width="47" height="47" rx="23.5" stroke="#E5E7EB"/>
<path d="M24 12C20.8174 12 17.7652 13.2643 15.5147 15.5147C13.2643 17.7652 12 20.8174 12 24C12 27.1826 13.2643 30.2348 15.5147 32.4853C17.7652 34.7357 20.8174 36 24 36C26.4819 36 29.0885 35.2523 30.9727 34.0004C31.0737 33.9333 31.1605 33.8469 31.2281 33.7462C31.2957 33.6456 31.3428 33.5326 31.3668 33.4137C31.3907 33.2948 31.391 33.1724 31.3676 33.0534C31.3443 32.9344 31.2977 32.8212 31.2306 32.7202C31.1635 32.6192 31.0771 32.5324 30.9764 32.4648C30.8758 32.3972 30.7628 32.3501 30.6439 32.3261C30.525 32.3022 30.4026 32.3019 30.2836 32.3252C30.1646 32.3486 30.0514 32.3952 29.9504 32.4623C28.3846 33.5054 26.1012 34.1538 24 34.1538C21.9918 34.1538 20.0286 33.5583 18.3588 32.4426C16.689 31.3269 15.3876 29.7411 14.6191 27.8857C13.8505 26.0303 13.6495 23.9887 14.0413 22.0191C14.433 20.0494 15.4001 18.2402 16.8201 16.8201C18.2402 15.4001 20.0494 14.433 22.0191 14.0413C23.9887 13.6495 26.0303 13.8505 27.8857 14.6191C29.7411 15.3876 31.3269 16.689 32.4426 18.3588C33.5583 20.0286 34.1538 21.9918 34.1538 24C34.1538 27.0519 32.8985 27.6923 31.8462 27.6923C30.7938 27.6923 29.5385 27.0519 29.5385 24V19.3846C29.5385 19.1398 29.4412 18.905 29.2681 18.7319C29.095 18.5588 28.8602 18.4615 28.6154 18.4615C28.3706 18.4615 28.1358 18.5588 27.9627 18.7319C27.7896 18.905 27.6923 19.1398 27.6923 19.3846V19.8762C26.8639 19.1335 25.8311 18.6575 24.7283 18.5102C23.6256 18.3629 22.504 18.5511 21.5097 19.0504C20.5155 19.5496 19.6946 20.3367 19.1541 21.3092C18.6136 22.2816 18.3785 23.3943 18.4795 24.5023C18.5804 25.6103 19.0127 26.6622 19.72 27.5209C20.4273 28.3797 21.3768 29.0056 22.4449 29.317C23.513 29.6284 24.6501 29.6109 25.7081 29.2667C26.7662 28.9226 27.696 28.2678 28.3765 27.3877C29.0688 28.7723 30.2631 29.5385 31.8462 29.5385C34.4469 29.5385 36 27.4685 36 24C35.9966 20.8184 34.7313 17.7681 32.4816 15.5184C30.2319 13.2687 27.1816 12.0034 24 12ZM24 27.6923C23.2697 27.6923 22.5559 27.4758 21.9487 27.07C21.3415 26.6643 20.8682 26.0877 20.5888 25.413C20.3093 24.7383 20.2362 23.9959 20.3786 23.2797C20.5211 22.5634 20.8728 21.9055 21.3891 21.3891C21.9055 20.8728 22.5634 20.5211 23.2797 20.3786C23.9959 20.2362 24.7383 20.3093 25.413 20.5888C26.0877 20.8682 26.6643 21.3415 27.07 21.9487C27.4758 22.5559 27.6923 23.2697 27.6923 24C27.6923 24.9793 27.3033 25.9184 26.6109 26.6109C25.9184 27.3033 24.9793 27.6923 24 27.6923Z" fill="white"/>
</svg>
