<svg width="48" height="48" viewBox="0 0 48 48" fill="none" xmlns="http://www.w3.org/2000/svg">
<rect x="0.5" y="0.5" width="47" height="47" rx="23.5" fill="#4F46E5"/>
<rect x="0.5" y="0.5" width="47" height="47" rx="23.5" stroke="#E5E7EB"/>
<path d="M34.1538 12H13.8462C13.3565 12 12.8869 12.1945 12.5407 12.5407C12.1945 12.8869 12 13.3565 12 13.8462V34.1538C12 34.6435 12.1945 35.1131 12.5407 35.4593C12.8869 35.8055 13.3565 36 13.8462 36H34.1538C34.6435 36 35.1131 35.8055 35.4593 35.4593C35.8055 35.1131 36 34.6435 36 34.1538V13.8462C36 13.3565 35.8055 12.8869 35.4593 12.5407C35.1131 12.1945 34.6435 12 34.1538 12ZM34.1538 34.1538H13.8462V13.8462H34.1538V34.1538ZM20.3077 22.1538V29.5385C20.3077 29.7833 20.2104 30.0181 20.0373 30.1912C19.8642 30.3643 19.6294 30.4615 19.3846 30.4615C19.1398 30.4615 18.905 30.3643 18.7319 30.1912C18.5588 30.0181 18.4615 29.7833 18.4615 29.5385V22.1538C18.4615 21.909 18.5588 21.6742 18.7319 21.5011C18.905 21.328 19.1398 21.2308 19.3846 21.2308C19.6294 21.2308 19.8642 21.328 20.0373 21.5011C20.2104 21.6742 20.3077 21.909 20.3077 22.1538ZM30.4615 25.3846V29.5385C30.4615 29.7833 30.3643 30.0181 30.1912 30.1912C30.0181 30.3643 29.7833 30.4615 29.5385 30.4615C29.2936 30.4615 29.0589 30.3643 28.8857 30.1912C28.7126 30.0181 28.6154 29.7833 28.6154 29.5385V25.3846C28.6154 24.7726 28.3723 24.1856 27.9395 23.7528C27.5067 23.3201 26.9197 23.0769 26.3077 23.0769C25.6957 23.0769 25.1087 23.3201 24.6759 23.7528C24.2431 24.1856 24 24.7726 24 25.3846V29.5385C24 29.7833 23.9027 30.0181 23.7296 30.1912C23.5565 30.3643 23.3217 30.4615 23.0769 30.4615C22.8321 30.4615 22.5973 30.3643 22.4242 30.1912C22.2511 30.0181 22.1538 29.7833 22.1538 29.5385V22.1538C22.155 21.9277 22.2391 21.7099 22.3902 21.5417C22.5413 21.3735 22.7488 21.2666 22.9735 21.2413C23.1982 21.2159 23.4244 21.2739 23.6091 21.4043C23.7938 21.5347 23.9243 21.7283 23.9758 21.9485C24.6002 21.5249 25.3283 21.2793 26.0817 21.2383C26.8352 21.1972 27.5856 21.3622 28.2523 21.7155C28.9191 22.0687 29.4771 22.5969 29.8663 23.2434C30.2555 23.8898 30.4613 24.63 30.4615 25.3846ZM20.7692 18.9231C20.7692 19.1969 20.688 19.4646 20.5359 19.6923C20.3837 19.92 20.1675 20.0975 19.9145 20.2023C19.6615 20.3071 19.3831 20.3345 19.1145 20.2811C18.8459 20.2277 18.5992 20.0958 18.4055 19.9021C18.2119 19.7085 18.08 19.4618 18.0266 19.1932C17.9732 18.9246 18.0006 18.6462 18.1054 18.3932C18.2102 18.1402 18.3877 17.924 18.6154 17.7718C18.8431 17.6197 19.1108 17.5385 19.3846 17.5385C19.7518 17.5385 20.104 17.6843 20.3637 17.944C20.6234 18.2037 20.7692 18.5559 20.7692 18.9231Z" fill="white"/>
</svg>
