<svg width="48" height="48" viewBox="0 0 48 48" fill="none" xmlns="http://www.w3.org/2000/svg">
<path d="M36.7725 24C41.3944 17.5106 43.7513 10.8037 40.4738 7.52622C37.1963 4.24872 30.4894 6.60559 24 11.2275C17.5107 6.60559 10.8038 4.24872 7.52628 7.52622C4.24878 10.8037 6.60565 17.5106 11.2275 24C6.60565 30.4893 4.24878 37.1962 7.52628 40.4737C8.5819 41.5293 9.9919 42 11.6344 42C15.0994 42 19.5994 39.9056 24.0094 36.7725C28.4007 39.9056 32.9007 42 36.375 42C38.0175 42 39.4294 41.5275 40.4832 40.4737C43.7513 37.1962 41.3944 30.4893 36.7725 24ZM38.3532 9.64684C39.7857 11.0793 38.8182 15.7218 34.8807 21.5118C33.635 19.9698 32.3088 18.4946 30.9075 17.0925C29.5052 15.6932 28.03 14.3688 26.4882 13.125C32.2782 9.18747 36.9207 8.21247 38.3532 9.64684ZM33.0544 24C31.7276 25.6784 30.3026 27.2768 28.7869 28.7868C27.2769 30.3026 25.6785 31.7275 24 33.0543C22.3216 31.7275 20.7232 30.3026 19.2132 28.7868C17.6974 27.2768 16.2725 25.6784 14.9457 24C17.6076 20.6455 20.6456 17.6075 24 14.9456C25.6785 16.2724 27.2769 17.6974 28.7869 19.2131C30.3026 20.7231 31.7276 22.3215 33.0544 24ZM9.6469 9.64684C10.0594 9.23247 10.74 9.01872 11.6382 9.01872C13.8544 9.01872 17.3925 10.3125 21.51 13.125C19.9696 14.3698 18.4951 15.6941 17.0925 17.0925C15.6932 18.4948 14.3689 19.97 13.125 21.5118C9.18753 15.7218 8.2144 11.0793 9.6469 9.64684ZM9.6469 38.3531C8.2144 36.9206 9.18753 32.2781 13.125 26.4881C14.3707 28.0301 15.6969 29.5053 17.0982 30.9075C18.4996 32.3057 19.9728 33.63 21.5119 34.875C15.7219 38.8125 11.0794 39.7875 9.6469 38.3531ZM38.3532 38.3531C36.9207 39.7875 32.2782 38.8181 26.4882 34.8806C28.0293 33.6339 29.5044 32.3077 30.9075 30.9075C32.3068 29.5052 33.6312 28.03 34.875 26.4881C38.8125 32.2781 39.7857 36.9206 38.3532 38.3531ZM26.25 24C26.25 24.445 26.1181 24.88 25.8708 25.25C25.6236 25.62 25.2722 25.9084 24.8611 26.0787C24.4499 26.249 23.9975 26.2936 23.5611 26.2067C23.1246 26.1199 22.7237 25.9056 22.409 25.591C22.0944 25.2763 21.8801 24.8754 21.7933 24.4389C21.7064 24.0025 21.751 23.5501 21.9213 23.1389C22.0916 22.7278 22.38 22.3764 22.75 22.1292C23.12 21.8819 23.555 21.75 24 21.75C24.5968 21.75 25.1691 21.987 25.591 22.409C26.013 22.8309 26.25 23.4032 26.25 24Z" fill="#7C3AED"/>
</svg>
